<?xml version="1.0" standalone="no"?>
<svg xmlns:xlink="http://www.w3.org/1999/xlink" id="wave" style="transform:rotate(0deg); transition: 0.3s" viewBox="0 0 1440 490" version="1.1" xmlns="http://www.w3.org/2000/svg"><defs><linearGradient id="sw-gradient-0" x1="0" x2="0" y1="1" y2="0"><stop stop-color="rgba(243, 106, 62, 1)" offset="0%"/><stop stop-color="rgba(255, 179, 11, 1)" offset="100%"/></linearGradient></defs><path style="transform:translate(0, 0px); opacity:1" fill="url(#sw-gradient-0)" d="M0,245L40,253.2C80,261,160,278,240,253.2C320,229,400,163,480,163.3C560,163,640,229,720,253.2C800,278,880,261,960,236.8C1040,212,1120,180,1200,138.8C1280,98,1360,49,1440,32.7C1520,16,1600,33,1680,65.3C1760,98,1840,147,1920,204.2C2000,261,2080,327,2160,351.2C2240,376,2320,359,2400,302.2C2480,245,2560,147,2640,147C2720,147,2800,245,2880,261.3C2960,278,3040,212,3120,163.3C3200,114,3280,82,3360,65.3C3440,49,3520,49,3600,114.3C3680,180,3760,310,3840,343C3920,376,4000,310,4080,236.8C4160,163,4240,82,4320,73.5C4400,65,4480,131,4560,204.2C4640,278,4720,359,4800,351.2C4880,343,4960,245,5040,220.5C5120,196,5200,245,5280,294C5360,343,5440,392,5520,400.2C5600,408,5680,376,5720,359.3L5760,343L5760,490L5720,490C5680,490,5600,490,5520,490C5440,490,5360,490,5280,490C5200,490,5120,490,5040,490C4960,490,4880,490,4800,490C4720,490,4640,490,4560,490C4480,490,4400,490,4320,490C4240,490,4160,490,4080,490C4000,490,3920,490,3840,490C3760,490,3680,490,3600,490C3520,490,3440,490,3360,490C3280,490,3200,490,3120,490C3040,490,2960,490,2880,490C2800,490,2720,490,2640,490C2560,490,2480,490,2400,490C2320,490,2240,490,2160,490C2080,490,2000,490,1920,490C1840,490,1760,490,1680,490C1600,490,1520,490,1440,490C1360,490,1280,490,1200,490C1120,490,1040,490,960,490C880,490,800,490,720,490C640,490,560,490,480,490C400,490,320,490,240,490C160,490,80,490,40,490L0,490Z"/></svg>